<?xml version="1.0" encoding="utf-8"?>
<!-- Generator: Adobe Illustrator 19.0.0, SVG Export Plug-In . SVG Version: 6.00 Build 0)  -->
<svg version="1.1" id="layer" xmlns="http://www.w3.org/2000/svg" xmlns:xlink="http://www.w3.org/1999/xlink" x="0px" y="0px"
	 viewBox="-153 -46 652 652" style="enable-background:new -153 -46 652 652;" xml:space="preserve">
<style type="text/css">
	.st0{clip-path:url(#SVGID_2_);fill:#00498C;}
	.st1{clip-path:url(#SVGID_4_);fill:#00498C;}
	.st2{clip-path:url(#SVGID_6_);fill:#00498C;}
	.st3{clip-path:url(#SVGID_8_);fill:#00498C;}
	.st4{clip-path:url(#SVGID_10_);fill:#FF7800;}
	.st5{clip-path:url(#SVGID_12_);fill:#00498C;}
	.st6{clip-path:url(#SVGID_14_);fill:#FF7800;}
</style>
<g>
	<g>
		<defs>
			<path id="SVGID_1_" d="M17.5,318.4l8.2-35.5h11c15.5,0,28.4,4.3,28.1,18.8c-0.4,16.2-17,22.8-35.1,22.8h-8.3
				C16.4,323.7,17.5,318.4,17.5,318.4L17.5,318.4z M99.8,302.3c1-16.1-11.2-30.1-27.3-31.4c15.5-2.5,35.8-13.9,35.8-34.7
				c0-22.2-22.4-34.1-56.1-34.1c-14.5,0-29.1,1.1-43.5,3.5l-24.2,107c0,0-8.3,27.7,15.4,33.4c6.1,1.6,12.5,2.5,18.8,2.6
				C81.5,352.1,99.8,323.8,99.8,302.3L99.8,302.3z M38.3,226.8c4.8-0.6,9.6-0.8,14.5-0.8c12.6,0,21.6,4.5,21.4,14.8
				c-0.3,12.6-13,19.6-31.4,19.6h-7.1c-5.2,0-3.7-6-3.7-6L38.3,226.8z M38.3,226.8"/>
		</defs>
		<clipPath id="SVGID_2_">
			<use xlink:href="#SVGID_1_"  style="overflow:visible;"/>
		</clipPath>
		<rect x="-40.3" y="178.5" class="st0" width="172.1" height="193.9"/>
	</g>
	<g>
		<defs>
			<path id="SVGID_3_" d="M253.9,349c5.1,0,14.7-2,18.1-16.7c2.6-11.7,7-31.4,7-31.4c3.4,0,8.2,0.9,13.7,0.9
				c54,0,72.7-34.7,72.7-58.2c0-25.7-17.9-40.5-56.9-40.7c-14.4-0.7-28.8,0.4-43,3.1l-31.7,143H253.9z M297.2,227.8
				c4.6-0.5,9.3-0.8,14-0.7c12.6,0,23,3.7,23,18.8c0,15.1-11.7,30.1-34.3,30.3h-4.3c-10.2,0-7.3-8.5-7.3-8.5L297.2,227.8z
				 M297.2,227.8"/>
		</defs>
		<clipPath id="SVGID_4_">
			<use xlink:href="#SVGID_3_"  style="overflow:visible;"/>
		</clipPath>
		<rect x="210.4" y="179.2" class="st1" width="178.5" height="193.3"/>
	</g>
	<g>
		<defs>
			<path id="SVGID_5_" d="M154.7,285.9c0-23.2,15.1-57.9,49.6-57.9c9.1,0,25.1,2.3,34.6,10.7c0,0,3.5-11.9,4.5-16.7
				c1-4.9-0.8-12.6-15.7-17.6c-8.9-3.1-18.3-4.6-27.7-4.6c-54,0-82.1,44.4-82.1,87.9c0,46.7,31.4,62.8,63.3,62.8
				c9,0.4,18-0.9,26.5-3.9c5.1-1.7,9-5.9,10.4-11.1l5.3-24c-9.3,7.6-21,11.7-32.9,11.5c-22.5,0-35.6-14.5-35.6-37"/>
		</defs>
		<clipPath id="SVGID_6_">
			<use xlink:href="#SVGID_5_"  style="overflow:visible;"/>
		</clipPath>
		<rect x="94.5" y="176.2" class="st2" width="172.6" height="197.6"/>
	</g>
	<g>
		<defs>
			<path id="SVGID_7_" d="M-80.1,213.2c-12.3-5.8-26,10.6-26.8,11.5c-3.2,4.1-5.9,8.6-8.1,13.4l7,3.6c12.9,6.3,24.6,15,34.3,25.6
				C-65.4,246.8-66.7,219.2-80.1,213.2L-80.1,213.2z M-80.1,213.2"/>
		</defs>
		<clipPath id="SVGID_8_">
			<use xlink:href="#SVGID_7_"  style="overflow:visible;"/>
		</clipPath>
		<rect x="-138.4" y="188.5" class="st3" width="93.4" height="102.2"/>
	</g>
	<g>
		<defs>
			<path id="SVGID_9_" d="M-32.2,288.1c-13,20.9-48.6,44.6-58.6,48.1c-12,5.1-25.9,1.6-34-8.6c-2.5-2.8-4.5-5.8-6.3-9.1
				c79.8-36.1,66.3-98.2,51.2-105.2c9.6,5,18.5,11.1,26.6,18.2c6.9,6.1,13.2,12.8,18.8,20C-26,261.9-25.1,276.7-32.2,288.1
				L-32.2,288.1z M-32.2,288.1"/>
		</defs>
		<clipPath id="SVGID_10_">
			<use xlink:href="#SVGID_9_"  style="overflow:visible;"/>
		</clipPath>
		<rect x="-154.6" y="189.8" class="st4" width="150.9" height="172.3"/>
	</g>
	<g>
		<defs>
			<path id="SVGID_11_" d="M422.7,267.3c8.4-20.5,7-48-6.3-54c-12.3-5.8-26.2,10.6-26.7,11.5c-3.2,4.1-6,8.6-8.2,13.4l7,3.6
				C401.5,248,413.1,256.7,422.7,267.3"/>
		</defs>
		<clipPath id="SVGID_12_">
			<use xlink:href="#SVGID_11_"  style="overflow:visible;"/>
		</clipPath>
		<rect x="358" y="188.5" class="st5" width="93.4" height="102.2"/>
	</g>
	<g>
		<defs>
			<path id="SVGID_13_" d="M405.6,336.2c-12,5-25.8,1.5-34-8.6c-2.4-2.8-4.5-5.8-6.3-9.1c79.8-36.1,66.2-98.2,51.1-105.2
				c9.6,5,18.5,11.1,26.6,18.2c6.9,6.1,13.2,12.8,18.8,20c8.5,10.5,9.3,25.2,2.1,36.6C451.2,308.9,415.7,332.7,405.6,336.2
				L405.6,336.2z M405.6,336.2"/>
		</defs>
		<clipPath id="SVGID_14_">
			<use xlink:href="#SVGID_13_"  style="overflow:visible;"/>
		</clipPath>
		<rect x="341.8" y="189.8" class="st6" width="150.9" height="172.3"/>
	</g>
</g>
</svg>
